# xmcd
#
# Track frame offsets:
#	150
#	13752
#	28696
#	39510
#	50354
#	62910
#	75533
#	89846
#	103570
#	115472
#	132076
#	145780
#	158785
#	170371
#	184067
#	198036
#	210956
#	220207
#	232824
#	245801
#	255360
#	273896
#
# Disc length: 3879 seconds
#
# Revision: 0
# Processed by: cddbd v1.4PL0 Copyright (c) Steve Scherf et al.
# Submitted via: audiograbber 1.80
#
DISCID=2a0f2516
DTITLE=Various Country Artists - C C - The Mid-'70s
DYEAR=1900
DGENRE=
TTITLE0=Billy Swan - I Can Help
TTITLE1=Joe Stampley - All These Things
TTITLE2=Dolly Parton - Love Is Like A Butterfly
TTITLE3=Don Williams - (Turn Out The Lights And) Love Me Tonight
TTITLE4=George Jones - The Door
TTITLE5=Freddy Fender - Wasted Days And Wasted Nights
TTITLE6=Moe Bandy - Hank Williams, You Wrote My Life
TTITLE7=Gary Stewart - Drinkin' Thing
TTITLE8=Lefty Frizell - I Never Go Around Mirrors
TTITLE9=Cal Smith - Country Bumpkin
TTITLE10=Emmylou Harris - Sweet Dreams
TTITLE11=Tom T. Hall - Faster Horses (The Cowboy And The Poet)
TTITLE12=Loretta Lynn - Love Is The Foundation
TTITLE13=Ronnie Milsap - (I'm A) Stand By My Woman Man
TTITLE14=Tammy Wynette - 'til I Can Make It On My Own
TTITLE15=Conway Twitty - I See The Want To In Your Eyes
TTITLE16=Johnny Rodriguez - Just Get Up And Close The Door
TTITLE17=Charlie Rich - A Very Special Love Song
TTITLE18=Tanya Tucker - San Antonio Stroll
TTITLE19=Willie Nelson - If You've Got The Money I've Got The Time
TTITLE20=Johnny Cash - One Piece At A Time
TTITLE21=C.W. McCall - Convoy
EXTD=
EXTT0=
EXTT1=
EXTT2=
EXTT3=
EXTT4=
EXTT5=
EXTT6=
EXTT7=
EXTT8=
EXTT9=
EXTT10=
EXTT11=
EXTT12=
EXTT13=
EXTT14=
EXTT15=
EXTT16=
EXTT17=
EXTT18=
EXTT19=
EXTT20=
EXTT21=
PLAYORDER=
